<?xml version="1.0" encoding="UTF-8" standalone="no"?>
<!-- Created with Inkscape (http://www.inkscape.org/) -->

<svg
   width="807.75342"
   height="734.11163"
   viewBox="0 0 807.75342 734.11163"
   version="1.1"
   id="svg1"
   xml:space="preserve"
   inkscape:export-filename="calor.png"
   inkscape:export-xdpi="96"
   inkscape:export-ydpi="96"
   inkscape:version="1.3.2 (091e20e, 2023-11-25, custom)"
   sodipodi:docname="icones.svg"
   xmlns:inkscape="http://www.inkscape.org/namespaces/inkscape"
   xmlns:sodipodi="http://sodipodi.sourceforge.net/DTD/sodipodi-0.dtd"
   xmlns="http://www.w3.org/2000/svg"
   xmlns:svg="http://www.w3.org/2000/svg"><sodipodi:namedview
     id="namedview1"
     pagecolor="#ffffff"
     bordercolor="#000000"
     borderopacity="0.25"
     inkscape:showpageshadow="2"
     inkscape:pageopacity="0.0"
     inkscape:pagecheckerboard="0"
     inkscape:deskcolor="#d1d1d1"
     inkscape:document-units="px"
     inkscape:zoom="0.17369792"
     inkscape:cx="-869.32533"
     inkscape:cy="682.21888"
     inkscape:window-width="1920"
     inkscape:window-height="1009"
     inkscape:window-x="1358"
     inkscape:window-y="-8"
     inkscape:window-maximized="1"
     inkscape:current-layer="g111" /><defs
     id="defs1" /><g
     inkscape:groupmode="layer"
     id="layer1"
     inkscape:label="fundo_peca"
     transform="translate(4352.5791,-264.63232)"><rect
       style="fill:#0d5cee;fill-opacity:0.477778;stroke:#000000;stroke-width:33.6278;stroke-linecap:round;stroke-linejoin:round;stroke-dasharray:none;stroke-opacity:1"
       id="rect1"
       width="774.12561"
       height="700.48383"
       x="-4335.7651"
       y="281.44623"
       inkscape:export-filename="peca.png"
       inkscape:export-xdpi="96"
       inkscape:export-ydpi="96" /></g><g
     inkscape:groupmode="layer"
     id="layer3"
     inkscape:label="gasolina"
     style="display:inline"
     transform="translate(4352.5791,-264.63232)"><g
       inkscape:groupmode="layer"
       id="layer2"
       inkscape:label="combustivel"><g
         inkscape:groupmode="layer"
         id="layer6"
         inkscape:label="oxigenio"
         style="display:none"><path
           style="display:none;fill:#000000;fill-opacity:0;stroke:#000000;stroke-width:3.142;stroke-linecap:round;stroke-linejoin:round;stroke-dasharray:none;stroke-opacity:1"
           d="m -3688.1568,286.30234 -17.991,15.83208 c -9.7782,12.14415 -12.6251,23.79321 -12.9535,35.26237 l -2.8786,325.997 13.6732,15.11244 118.3406,0.27672 13.2304,-6.10635 4.8342,-10.68611 -0.2545,-322.36436 -8.6506,-26.20642 -16.0292,-20.10006 -12.4671,-8.65066 -15.0115,-7.37851 -18.5734,-3.30761 -16.2836,0.50887 c -10.9952,1.37503 -19.8345,7.03867 -28.9854,11.8106 z"
           id="path46-3"
           inkscape:label="interna_cilindro"
           sodipodi:nodetypes="cccccccccccccccc" /><path
           style="display:none;fill:#000000;fill-opacity:0;stroke:#000000;stroke-width:3.142;stroke-linecap:round;stroke-linejoin:round;stroke-dasharray:none;stroke-opacity:1"
           d="m -3675.2032,258.23637 c -30.5921,6.19099 -35.3783,15.35959 -50.1204,23.37944 -18.9542,17.73751 -24.3627,36.33134 -28.2418,54.70271 l 0.5088,329.74287 c 5.7011,10.71935 9.6443,22.08634 27.733,28.24186 l 144.2625,-1.52658 c 17.1919,-6.97305 24.954,-18.47242 25.1887,-33.58492 l 0.2545,-314.477 c 0.784,-20.60893 -11.4848,-41.21785 -28.2419,-61.82678 -9.3622,-9.02112 -24.4429,-18.60625 -36.6381,-21.88109 -14.2882,-3.74273 -36.7164,-4.83335 -54.7053,-2.77051 z"
           id="path47-2"
           sodipodi:nodetypes="ccccccccccc"
           inkscape:label="externo_cilindro" /></g></g></g></svg>
